<?xml version="1.0" standalone="no"?>
<!DOCTYPE svg PUBLIC "-//W3C//DTD SVG 20010904//EN"
 "http://www.w3.org/TR/2001/REC-SVG-20010904/DTD/svg10.dtd">
<svg version="1.0" xmlns="http://www.w3.org/2000/svg"
 width="92.000000pt" height="92.000000pt" viewBox="0 0 92.000000 92.000000"
 preserveAspectRatio="xMidYMid meet">
<metadata>
Created by potrace 1.10, written by Peter Selinger 2001-2011
</metadata>
<g transform="translate(0.000000,92.000000) scale(0.100000,-0.100000)"
fill="#000000" stroke="none">
<path d="M316 740 c-115 -36 -168 -155 -116 -262 24 -50 25 -62 5 -78 -8 -7
-13 -16 -10 -20 3 -5 2 -11 -3 -14 -15 -9 -13 -94 3 -132 29 -69 78 -104 159
-111 39 -3 61 1 91 16 43 23 71 27 77 10 2 -5 11 -11 20 -13 10 -1 21 -5 24
-9 14 -13 89 -6 129 12 41 19 98 74 88 85 -4 3 -2 6 4 6 24 0 20 117 -6 169
-13 25 -19 46 -13 50 17 11 34 53 38 92 8 85 -56 177 -138 200 -48 13 -89 7
-141 -21 -44 -24 -42 -24 -61 -4 -26 26 -104 38 -150 24z m113 -41 c17 -6 31
-15 31 -19 0 -21 41 -20 69 1 34 25 117 35 138 17 7 -6 13 -8 13 -4 0 18 54
-32 71 -65 21 -42 26 -129 7 -129 -6 0 -8 -3 -5 -7 4 -3 -3 -17 -15 -30 -20
-21 -21 -26 -8 -46 46 -74 53 -131 20 -184 -29 -48 -66 -68 -129 -70 -57 -1
-90 9 -104 33 -11 19 -21 18 -63 -11 -39 -26 -126 -36 -139 -15 -4 6 -10 8
-14 6 -4 -3 -22 9 -39 27 -31 32 -55 104 -45 136 10 32 28 66 41 76 13 11 7
45 -8 45 -21 0 -40 93 -28 138 23 87 117 132 207 101z"/>
<path d="M302 627 c-39 -42 -24 -119 29 -148 32 -17 57 -20 166 -21 120 0 182
21 203 72 25 60 -12 120 -73 120 -57 0 -85 -33 -95 -110 -4 -38 -17 -51 -46
-48 -15 2 -23 16 -31 56 -16 67 -43 97 -93 100 -29 2 -43 -3 -60 -21z m103
-47 c22 -42 20 -80 -5 -80 -34 0 -69 22 -78 50 -13 36 2 60 38 60 23 0 33 -7
45 -30z m259 14 c18 -46 -11 -85 -66 -87 -32 -2 -33 -1 -30 33 2 19 11 43 19
53 20 21 69 23 77 1z"/>
<path d="M364 399 c-96 -28 -114 -156 -25 -184 26 -8 91 20 91 39 0 9 4 16 8
16 5 0 9 6 10 13 10 70 16 87 34 92 25 8 48 -11 48 -41 0 -99 100 -156 158
-88 42 48 11 126 -60 153 -31 12 -225 12 -264 0z m56 -64 c0 -37 -35 -85 -63
-85 -21 0 -37 22 -37 52 0 21 8 33 33 48 50 31 67 27 67 -15z m209 20 c48 -24
56 -78 16 -97 -21 -9 -28 -8 -45 7 -17 15 -40 71 -40 98 0 12 39 8 69 -8z"/>
</g>
</svg>
